
v -1000 1200 -500
vt -20 47
vn -1 0 0
v -1000 200 500
vt 20 8
v -1000 1200 500
vt 20 47
f 1/1/1 2/2/1 3/3/1

v -1000 200 -500
vt -20 8
f 2/2/1 1/1/1 4/4/1

vt 39 47
vn 0 0 -1
v 1000 200 -500
vt -39 8
vt 39 8
f 1/5/2 5/6/2 4/7/2

v 993 653 -500
vt -39 26
f 5/6/2 1/5/2 6/8/2

v 539 789 -500
vt -21 31
f 6/8/2 1/5/2 7/9/2

v 415 1152 -500
vt -16 45
f 7/9/2 1/5/2 8/10/2

v 413 1202 -500
vt -16 47
f 8/10/2 1/5/2 9/11/2

vt -20 -39
vn 0 1 0
v 413 1202 500
vt 20 16
vt -20 16
f 1/12/3 10/13/3 9/14/3

vt 20 -39
f 10/13/3 1/12/3 3/15/3

vt -39 47
vn 0 0 1
v 415 1152 500
vt 16 45
vt 16 47
f 3/16/4 11/17/4 10/18/4

v 539 789 500
vt 21 31
f 3/16/4 12/19/4 11/17/4

v 993 653 500
vt 39 26
f 3/16/4 13/20/4 12/19/4

f 2/6/4 13/20/4 3/16/4

v 1000 200 500
f 13/20/4 2/6/4 14/7/4

vt 39 -20
vn 0 -1 0
v -800 200 450
vt 31 -18
vt -39 -20
f 2/21/5 15/22/5 14/23/5

v -800 200 -450
vt 31 18
f 15/22/5 2/21/5 16/24/5

vt 39 20
f 4/25/5 16/24/5 2/21/5

vt -39 20
f 16/24/5 4/25/5 5/26/5

v -400 200 -450
vt 16 18
f 16/24/5 5/26/5 17/27/5

v 400 200 -450
vt -16 18
f 17/27/5 5/26/5 18/28/5

v 800 200 -450
vt -31 18
f 18/28/5 5/26/5 19/29/5

v 800 200 -300
vt -31 12
f 19/29/5 5/26/5 20/30/5

f 14/23/5 20/30/5 5/26/5

v 800 200 450
vt -31 -18
f 14/23/5 21/31/5 20/30/5

v 400 200 450
vt -16 -18
f 14/23/5 22/32/5 21/31/5

v -400 200 450
vt 16 -18
f 14/23/5 23/33/5 22/32/5

f 14/23/5 15/22/5 23/33/5

v -400 200 300
vt 16 -12
f 15/22/5 24/34/5 23/33/5

v -800 200 300
vt 31 -12
f 24/34/5 15/22/5 25/35/5

vt 12 19
vn -1 0 0
v -720 0 450
vt 18 11
vt 18 19
f 25/36/6 26/37/6 15/38/6

v -720 0 300
vt 12 11
f 26/37/6 25/36/6 27/39/6

vt 31 8
vn 0 0 -1
v -464 0 300
vt 18 0
vt 28 0
f 25/40/7 28/41/7 27/42/7

vt 16 8
f 28/41/7 25/40/7 24/43/7

v -400 200 -300
vt 16 12
f 25/35/5 29/44/5 24/34/5

v -800 200 -300
vt 31 12
f 29/44/5 25/35/5 30/45/5

f 15/22/5 30/45/5 25/35/5

f 15/22/5 16/24/5 30/45/5

vt -18 19
v -720 0 -300
vt -12 11
vt -12 19
f 16/46/6 31/47/6 30/48/6

v -720 0 -450
vt -18 11
f 31/47/6 16/46/6 32/49/6

v -464 0 -450
f 16/40/7 33/41/7 32/42/7

f 33/41/7 16/40/7 17/43/7

f 17/27/5 30/45/5 16/24/5

f 30/45/5 17/27/5 29/44/5

vt 12 3
vn 1 0 0
vt 18 -6
vt 18 3
f 29/50/8 33/51/8 17/52/8

v -464 0 -300
vt 12 -6
f 33/51/8 29/50/8 34/53/8

vt -16 8
vn 0 0 1
vt -28 0
vt -18 0
f 29/54/9 31/55/9 34/56/9

vt -31 8
f 31/55/9 29/54/9 30/57/9

vt 28 12
vt 18 18
vt 18 12
f 31/58/5 33/59/5 34/60/5

vt 28 18
f 33/59/5 31/58/5 32/61/5

f 17/27/5 18/28/5 29/44/5

v 400 200 300
vt -16 -12
f 29/44/5 18/28/5 35/62/5

v 400 200 -300
vt -16 12
f 36/63/5 35/62/5 18/28/5

v 800 200 300
vt -31 -12
f 35/62/5 36/63/5 37/64/5

f 37/64/5 36/63/5 20/30/5

v 480 0 -300
vt 19 0
f 38/65/9 20/40/9 36/43/9

v 736 0 -300
vt 29 0
f 20/40/9 38/65/9 39/66/9

vt -19 12
v 736 0 -450
vt -29 18
vt -29 12
f 38/67/5 40/68/5 39/69/5

v 480 0 -450
vt -19 18
f 40/68/5 38/67/5 41/70/5

vt -12 -7
vt -18 1
vt -18 -7
f 38/71/6 18/72/6 41/73/6

vt -12 1
f 18/72/6 38/71/6 36/74/6

f 19/29/5 36/63/5 18/28/5

f 36/63/5 19/29/5 20/30/5

vt 12 17
vt 18 9
vt 18 17
f 20/75/8 40/76/8 19/77/8

vt 12 9
f 40/76/8 20/75/8 39/78/8

vt -29 0
f 40/79/7 18/54/7 19/57/7

vt -19 0
f 18/54/7 40/79/7 41/80/7

f 37/64/5 20/30/5 21/31/5

vt -18 17
vn 1 0 0
v 736 0 300
vt -12 9
vt -12 17
f 21/81/10 42/82/10 37/83/10

v 736 0 450
vt -18 9
f 42/82/10 21/81/10 43/84/10

vn 0 0 1
v 480 0 450
vt 19 0
vt 29 0
f 21/40/11 44/85/11 43/86/11

f 44/85/11 21/40/11 22/43/11

f 22/32/5 37/64/5 21/31/5

f 37/64/5 22/32/5 35/62/5

vt 12 1
vt 18 -7
vt 18 1
f 35/87/6 44/88/6 22/89/6

v 480 0 300
vt 12 -7
f 44/88/6 35/87/6 45/90/6

f 35/54/7 42/79/7 45/80/7

f 42/79/7 35/54/7 37/57/7

vt -29 -12
vt -19 -18
vt -19 -12
f 42/91/5 44/92/5 45/93/5

vt -29 -18
f 44/92/5 42/91/5 43/94/5

f 22/32/5 29/44/5 35/62/5

f 22/32/5 23/33/5 29/44/5

f 24/34/5 29/44/5 23/33/5

vt -18 3
vt -12 -6
vt -12 3
f 23/95/10 28/96/10 24/97/10

v -464 0 450
vt -18 -6
f 28/96/10 23/95/10 46/98/10

vt -28 0
vt -18 0
f 23/54/11 26/99/11 46/100/11

f 26/99/11 23/54/11 15/57/11

vt 28 -18
vt 18 -12
vt 18 -18
f 26/101/5 28/102/5 46/103/5

vt 28 -12
f 28/102/5 26/101/5 27/104/5

vt 20 7
vn 1 0 0
vt -20 25
vt -20 7
f 5/105/12 13/106/12 14/107/12

vt 20 25
f 13/106/12 5/105/12 6/108/12

vt 20 -11
vn 0 1 0
vt -20 -30
vt 20 -30
f 7/109/13 13/110/13 6/111/13

vt -20 -11
f 13/110/13 7/109/13 12/112/13

vt 20 38
vn 1 0 0
vt -20 23
vt 20 23
f 8/113/14 12/114/14 7/115/14

vt -20 38
f 12/114/14 8/113/14 11/116/14

vt 20 45
vn 1 0 0
vt -20 47
vt -20 45
f 8/117/15 10/118/15 11/119/15

vt 20 47
f 10/118/15 8/117/15 9/120/15

